<svg width="40" height="40" viewBox="0 0 40 40" fill="none" xmlns="http://www.w3.org/2000/svg">
<mask id="mask0" mask-type="alpha" maskUnits="userSpaceOnUse" x="0" y="0" width="40" height="40">
<circle cx="20" cy="20" r="20" fill="#E0E0E0"/>
</mask>
<g mask="url(#mask0)">
<circle cx="20" cy="20" r="20" fill="#E0E0E0"/>
<path d="M19.518 7.60471C19.885 6.83128 20.2538 6.05449 20.7318 5.34472C20.9852 4.96837 21.2728 4.60795 21.6369 4.33798C22.0412 4.03814 22.5285 3.86039 23.0264 3.7886C23.2596 3.75508 23.5007 3.74432 23.728 3.80715C24.0824 3.90508 24.3667 4.17149 24.5961 4.4599C25.1336 5.13593 25.4448 5.96992 25.613 6.81779C25.7813 7.66567 25.8141 8.53382 25.8465 9.39752C24.7179 9.60273 23.5651 9.52269 22.4319 9.40332C21.8583 9.34298 21.2859 9.27144 20.7114 9.21993C20.4165 9.19347 20.121 9.17177 19.8253 9.15968C19.6305 9.15178 19.3027 9.21406 19.1462 9.06614C18.8219 8.75999 19.375 7.90606 19.518 7.60471Z" fill="white"/>
<path d="M30.0221 8.24617C30.3122 8.26025 30.6045 8.30978 30.8678 8.43275C31.3139 8.64089 31.6467 9.04955 31.8371 9.50428C32.0276 9.95922 32.087 10.459 32.0929 10.9523C32.1074 12.1765 31.8038 13.3879 31.3487 14.5239C30.2794 13.4656 29.2103 12.4073 28.141 11.349C27.88 11.0908 27.6191 10.8325 27.3581 10.5742C27.1796 10.3975 26.7905 10.1433 26.8296 9.85834C26.8943 9.38626 27.7467 8.87954 28.1214 8.68117C28.7027 8.37377 29.3642 8.21452 30.0221 8.24617Z" fill="white"/>
<path d="M28.9098 33.8411C29.1522 33.8742 29.3957 33.9353 29.6034 34.0652C29.7931 34.1837 29.9455 34.3552 30.0688 34.5422C30.5438 35.2639 30.5871 36.1932 30.4494 37.0464C30.3904 37.4119 30.298 37.7795 30.1004 38.0922C29.9029 38.4048 29.5854 38.6578 29.2189 38.7037C29.2701 38.6974 28.3389 36.3602 28.2335 36.1559C28.0206 35.7435 27.7856 35.3425 27.5293 34.9558C27.401 34.7622 27.2609 34.5774 27.1291 34.3865C26.9551 34.1347 27.0223 34.1052 27.304 34.0061C27.8161 33.8259 28.3714 33.7675 28.9098 33.8411Z" fill="white"/>
<path d="M31.1311 38.0084C31.1813 37.6358 31.3277 37.2635 31.6054 37.0108C31.9986 36.6531 32.604 36.5954 33.104 36.7758C33.6039 36.9563 34.0074 37.342 34.3152 37.7764C33.6839 38.2327 32.9777 38.5846 32.2345 38.8163C32.0289 38.8804 31.4117 39.1432 31.2149 39.0209C31.0017 38.8885 31.1024 38.2207 31.1311 38.0084Z" fill="white"/>
<path d="M13.9526 10.9424C14.1939 10.7611 14.4415 10.5885 14.6959 10.4254C15.1644 10.1254 15.6546 9.85986 16.1648 9.63802C16.6733 9.41697 17.1917 9.29895 17.7118 9.13832C19.8214 8.48675 22.0506 8.32572 24.2003 8.90591C29.982 10.4663 31.5066 13.3081 32.7832 17.9217C32.9616 18.5664 33.2149 19.1734 33.3975 19.8132C33.586 20.4738 33.7039 21.1523 33.8043 21.8313C33.9068 22.5259 33.9926 23.2301 34.2369 23.8883C34.5337 24.6883 34.9752 25.3663 35.103 26.2279C35.2275 27.0673 35.154 27.9298 34.9607 28.753C34.7879 29.4891 34.5176 30.2133 34.0671 30.8197C33.5346 31.5365 32.7715 32.057 31.9543 32.4148C31.137 32.7726 30.2622 32.9777 29.3883 33.1551C28.3583 33.3645 27.32 33.5386 26.2731 33.6291C26.4204 33.6167 26.6498 33.9406 26.7313 34.038C26.925 34.2697 27.1082 34.5159 27.2812 34.764C27.6577 35.3038 27.9795 35.8818 28.24 36.4864C28.407 36.8744 28.549 37.2726 28.7184 37.6592C28.8657 37.9953 29.0249 38.3487 29.3453 38.5528C29.4153 38.5975 29.4903 38.6343 29.5686 38.6621C29.8114 38.7481 30.0746 38.7473 30.332 38.7457C30.5463 38.7444 30.7596 38.7257 30.9716 38.721C31.5474 38.7085 32.1195 38.5861 32.6706 38.4221C33.4984 38.1756 34.1189 37.7767 34.6828 37.1356C35.3291 36.4007 35.668 35.3767 36.4869 34.7996C36.572 34.7397 36.6658 34.6843 36.7694 34.6763C37.0186 34.6571 37.1999 34.9053 37.3059 35.1324C37.546 35.6474 37.6743 36.2062 37.8009 36.7604C37.9075 37.2273 38.015 37.7019 37.9879 38.18C37.9776 38.3638 37.9473 38.5458 37.9109 38.7262C37.7183 39.6822 37.3513 40.6024 36.8352 41.4289C36.3144 42.2627 35.5074 42.8159 34.6712 43.3107C34.2978 43.5316 33.9155 43.7375 33.5235 43.9235C32.3969 44.4587 31.2438 44.7651 30.0078 44.8995C28.6786 45.0442 27.3536 45.2233 26.0226 45.3548C24.6816 45.4871 23.3389 45.599 21.9947 45.6902C20.6922 45.7788 19.394 45.8138 18.0966 45.9443C16.7616 46.0786 15.4279 46.2323 14.0884 46.3145C13.7541 46.3351 13.4194 46.3511 13.0847 46.3613C12.8259 46.3691 12.3881 46.4584 12.1481 46.357C11.7345 46.1822 11.4951 45.536 11.6413 45.1338C11.7887 44.7277 12.2157 44.5084 12.5177 44.2001C12.5698 44.147 12.6207 44.0861 12.6314 44.0123C12.6415 43.9421 12.6133 43.8725 12.5878 43.8063C12.3368 43.157 12.286 42.4315 12.444 41.7537C12.5562 41.2722 12.7734 40.8161 13.0733 40.4239C13.3011 40.1258 13.6883 39.7741 13.6195 39.3488C13.6028 39.2458 13.5428 39.1421 13.4443 39.1076C13.3553 39.0766 13.2583 39.1075 13.1678 39.1333C12.2328 39.4014 11.2416 39.1323 10.2776 39.0024C9.95887 38.9595 9.63381 38.9311 9.33322 38.817C8.85961 38.6371 8.48401 38.2567 8.21184 37.8285C7.91589 37.3629 7.72384 36.8147 7.76363 36.2642C7.81937 35.4954 8.29415 34.9009 8.73329 34.3078C8.91991 34.0556 8.94653 33.6905 8.97965 33.3836C8.98792 33.3073 9.13824 32.34 9.2107 32.3789C8.92755 32.2268 8.61774 32.1334 8.31549 32.0246C8.03039 31.9219 7.75078 31.8045 7.47757 31.673C6.97187 31.4296 6.48911 31.1384 6.03749 30.805C5.60981 30.4894 5.12058 30.1236 4.80141 29.6934C4.11169 28.7637 3.69024 27.5924 3.60022 26.44C3.56933 26.0437 3.57646 25.6417 3.6632 25.2538C3.76152 24.8148 3.95887 24.4047 4.17219 24.0089C4.55885 23.2911 5.0394 22.4123 5.7869 22.0411C6.68969 21.5928 7.55202 21.0186 8.41493 20.4984C8.57467 20.4021 8.7387 20.3014 8.8477 20.1497C9.02862 19.8981 9.02192 19.5626 9.02687 19.2525C9.05356 17.5813 9.63283 15.9453 10.5342 14.5398C10.9951 13.8209 11.5395 13.1579 12.1376 12.5498C12.7038 11.9738 13.3056 11.4281 13.9526 10.9424Z" fill="#D3D3D3"/>
<path d="M17.5988 45.7862C17.5988 45.7862 15.057 44.2643 14.4953 41.4708C14.2149 40.0764 14.3431 38.6251 14.6977 37.2566C15.0073 36.0622 15.5163 34.8524 16.5103 34.0658C17.9288 32.9432 19.9906 32.8004 21.4694 33.8761C22.3357 34.5064 22.8715 35.5006 23.2547 36.4772C23.4382 36.9454 23.5658 37.4322 23.7406 37.9018C23.9331 38.4193 24.1823 39.026 24.0554 39.5876C24.0382 39.6638 24.001 39.8361 23.8872 39.8267L22.2073 40.4352L21.446 41.6152L21.8323 43.0026L20.689 43.759L20.3473 44.8684L20.2934 45.5444L17.5988 45.7862Z" fill="white"/>
<path d="M12.2066 22.4318C12.7899 22.6599 13.4306 22.6854 14.0568 22.6817C14.6361 22.6781 15.2611 22.6355 15.7077 22.2659C16.1863 21.87 16.3331 21.2051 16.4116 20.5881C16.516 19.7679 16.5437 18.8962 16.1773 18.1553C15.8561 17.5057 15.2346 17.0133 14.5302 16.8497C13.8256 16.6861 13.0518 16.8548 12.4788 17.2965C11.8547 17.7778 11.4938 18.5413 11.3561 19.3187C11.2402 19.9727 11.2683 20.6411 11.3331 21.2992C11.3895 21.8711 11.6606 22.2183 12.2066 22.4318Z" fill="white"/>
<path d="M22.4755 23.1588C23.1114 23.3822 23.8118 23.4023 24.4965 23.3933C25.1299 23.3849 25.8138 23.337 26.3052 22.9634C26.8317 22.5632 26.9977 21.8966 27.0889 21.2785C27.2099 20.4567 27.2476 19.5842 26.8531 18.8458C26.5072 18.1984 25.832 17.7108 25.063 17.553C24.294 17.3952 23.4466 17.5705 22.8163 18.0174C22.1299 18.5043 21.7289 19.2714 21.5717 20.0505C21.4394 20.706 21.4645 21.3747 21.5302 22.0326C21.5868 22.6046 21.8805 22.9495 22.4755 23.1588Z" fill="white"/>
<path d="M14.2706 17.4861C13.5059 17.3336 12.6578 17.6519 12.2117 18.3166C11.6706 19.1227 11.4736 20.0258 11.4617 20.9797C11.4654 21.0203 11.4611 21.0632 11.4614 21.1041C11.4616 21.1468 11.4623 21.1894 11.4633 21.232C11.4657 21.3442 11.47 21.4563 11.4746 21.5684C11.4795 21.6238 11.4773 21.6799 11.4823 21.7352C11.4874 21.7925 11.489 21.8498 11.4852 21.9073C11.4848 21.9131 11.4843 21.9192 11.4818 21.9245C11.4748 21.9388 11.4521 21.9372 11.4408 21.9299C11.4322 21.9245 11.426 21.9163 11.4201 21.9081C11.4048 21.887 11.3913 21.8648 11.3792 21.8415C11.2819 21.6541 11.1812 21.4658 11.1083 21.2662C10.6434 19.9925 11.1163 18.0818 12.1207 17.175C13.5035 15.9267 16.0943 16.1815 16.9637 18.0153C17.1824 18.4767 17.2628 18.9663 17.2487 19.4761C17.2317 20.0837 17.1831 20.6855 16.9653 21.2593C16.7331 21.8714 16.3531 22.3473 15.6727 22.4562C14.7167 22.6087 13.472 22.2922 13.2065 20.8589C12.9945 19.7139 13.2036 18.6738 13.9808 17.7792C14.0653 17.682 14.1622 17.5952 14.2706 17.4861ZM14.8684 19.8421C14.8918 19.9177 14.913 20.0351 14.9627 20.1388C15.1468 20.522 15.5798 20.622 15.9106 20.3653C16.2928 20.0685 16.3645 19.4219 16.0565 19.0481C15.8546 18.8031 15.535 18.7494 15.2712 18.9242C14.9577 19.132 14.8603 19.4431 14.8684 19.8421Z" fill="#565656"/>
<path d="M21.7586 22.7038C21.7525 22.7003 21.7472 22.6956 21.7425 22.6905C21.7332 22.68 21.7272 22.6673 21.7212 22.6549C21.5977 22.4007 21.468 22.1445 21.3845 21.8733C20.9612 20.4988 21.5523 18.5775 22.633 17.7656C23.8583 16.8449 25.7361 16.9719 26.781 18.0474C27.2344 18.5139 27.4797 19.0817 27.5387 19.7226C27.6049 20.4414 27.5521 21.1571 27.3354 21.8473C26.9455 23.089 26.0453 23.4759 24.8097 23.1171C24.0172 22.8869 23.6153 22.2943 23.4939 21.5066C23.3014 20.2559 23.5959 19.1557 24.5478 18.276C24.5565 18.2679 24.5595 18.254 24.5823 18.2089C24.443 18.2017 24.3183 18.1854 24.1944 18.1903C23.4736 18.2183 22.8933 18.5073 22.4925 19.1239C21.896 20.0415 21.7445 21.0653 21.7816 22.133C21.7849 22.2268 21.7929 22.3204 21.8021 22.4137C21.8068 22.4613 21.8119 22.5086 21.8168 22.5562C21.8189 22.5769 21.8191 22.5985 21.8218 22.6189C21.8242 22.6386 21.8306 22.6549 21.8239 22.6749C21.8171 22.6945 21.7986 22.7109 21.7778 22.7097C21.7712 22.7095 21.7646 22.7073 21.7586 22.7038ZM26.3985 20.3668C26.3938 20.3149 26.396 20.2613 26.3832 20.2115C26.3206 19.9647 26.1921 19.7677 25.941 19.6816C25.7001 19.5991 25.4941 19.681 25.3165 19.8457C24.9989 20.14 24.9388 20.7112 25.1843 21.0666C25.3888 21.3626 25.7451 21.4311 26.0372 21.221C26.3285 21.0122 26.4236 20.7128 26.3985 20.3668Z" fill="#565656"/>
<path d="M22.1482 25.4515C22.1497 25.4701 22.1495 25.4874 22.1495 25.4992C22.1468 25.9907 21.8596 26.4605 21.5411 26.8158C21.3956 26.978 21.2345 27.1254 21.0652 27.2623C20.4855 27.7315 19.8127 27.9596 19.0779 28.0145C18.1301 28.0852 17.1786 27.8883 16.4063 27.3127C15.8825 26.9225 15.4032 26.3371 15.3297 25.6657C15.3229 25.604 15.3373 25.5131 15.415 25.5272C15.46 25.5354 15.5088 25.6074 15.5356 25.6395C15.6124 25.7323 15.669 25.8412 15.7463 25.9333C15.8542 26.0616 15.9705 26.1827 16.0951 26.2948C16.341 26.5158 16.6193 26.6995 16.9195 26.8378C17.09 26.9163 17.2671 26.9803 17.4479 27.0302C18.3139 27.2698 19.181 27.2331 20.0365 26.9718C20.4803 26.8361 20.8897 26.6063 21.2433 26.3061C21.4059 26.1681 21.5567 26.0167 21.6966 25.8559C21.768 25.7739 21.8364 25.6895 21.9025 25.6029C21.9358 25.5591 21.9687 25.515 22.0007 25.4703C22.0224 25.4402 22.0442 25.3842 22.0808 25.3692C22.1308 25.3481 22.1445 25.4034 22.1482 25.4515Z" fill="#565656"/>
<path d="M14.8687 19.8421C14.8606 19.4429 14.958 19.1318 15.2717 18.9239C15.5355 18.7492 15.8552 18.8028 16.057 19.0478C16.365 19.4216 16.2934 20.0682 15.9111 20.365C15.5801 20.622 15.1471 20.5217 14.9633 20.1385C14.9133 20.035 14.8921 19.9176 14.8687 19.8421Z" fill="white"/>
<path d="M26.3979 20.3668C26.423 20.7128 26.3279 21.012 26.0369 21.2212C25.745 21.4311 25.3884 21.3628 25.1839 21.0669C24.9385 20.7114 24.9986 20.1403 25.3162 19.8459C25.4938 19.6812 25.6998 19.5994 25.9407 19.6819C26.1917 19.7677 26.3203 19.9649 26.3829 20.2117C26.3955 20.2614 26.3932 20.3149 26.3979 20.3668Z" fill="white"/>
<path d="M30.0572 28.2655C31.6414 28.1233 32.81 26.7207 32.6675 25.1326C32.525 23.5446 31.1252 22.3725 29.5411 22.5146C27.9569 22.6568 26.7883 24.0595 26.9308 25.6475C27.0733 27.2356 28.4731 28.4077 30.0572 28.2655Z" fill="#ADADAD"/>
<path d="M9.20387 25.7006C10.2458 24.2703 10.3385 22.5603 9.41093 21.8811C8.4834 21.202 6.88688 21.8109 5.84499 23.2412C4.80311 24.6715 4.71041 26.3815 5.63794 27.0607C6.56547 27.7398 8.16199 27.1309 9.20387 25.7006Z" fill="#ADADAD"/>
<path d="M38.4496 35.3141C38.381 35.1056 38.2939 34.8987 38.1839 34.7095C37.5756 33.6642 36.3431 33.4863 35.5066 34.3585C35.1658 34.7138 34.9264 35.1677 34.6462 35.5806C34.4801 35.8257 34.3243 36.0781 34.1597 36.3338C33.1338 35.7276 32.143 35.5628 31.1567 36.3908C31.0985 35.4622 30.8192 34.6338 30.3441 33.8543C31.6149 33.4831 32.4377 33.1493 33.217 32.6752C35.4285 31.3301 36.3291 29.3112 36.1932 26.7788C36.1521 26.0134 35.8974 25.289 35.6353 24.5739C35.2594 23.5477 34.9089 22.5139 34.7106 21.4365C34.4894 20.2334 34.2933 19.0257 34.0666 17.8237C33.8161 16.496 33.4227 15.213 32.8022 14.0062C32.7587 13.9215 32.7418 13.8072 32.7544 13.7124C32.8748 12.8032 32.9082 11.8977 32.6712 10.9999C32.4267 10.0735 32.0448 9.21724 31.3357 8.55021C30.8323 8.07684 30.1658 7.74251 29.4625 7.76147C28.7048 7.7821 28.0303 8.07737 27.4093 8.49397C27.3025 8.56565 27.1958 8.65568 27.0645 8.67536C26.8593 8.70573 26.7258 8.54912 26.6676 8.37317C26.6466 8.30955 26.6254 8.24594 26.6056 8.18178C26.5621 8.04142 26.5234 7.89957 26.4832 7.75828C26.4612 7.68066 26.4389 7.60285 26.4151 7.52581C26.3328 7.25898 26.2443 6.99399 26.1489 6.73176C26.0536 6.46993 25.9514 6.21065 25.8417 5.95439C25.7321 5.69812 25.6147 5.44512 25.4895 5.19601C25.3643 4.94711 25.231 4.70236 25.0896 4.46238C24.3517 3.21068 23.0553 2.77262 21.7587 3.34674C20.8992 3.72712 20.2482 4.37196 19.8002 5.18425C19.3775 5.95094 19.0408 6.76518 18.6576 7.55415C18.6188 7.63403 18.5309 7.71746 18.4481 7.74388C17.6966 7.98483 16.9209 8.16265 16.1906 8.45525C13.6637 9.46735 11.6667 11.1715 10.0396 13.331C9.22606 14.4108 8.61051 15.5928 8.28741 16.9167C8.09177 17.7183 8.04025 18.534 8.0473 19.355C8.04861 19.4976 7.99225 19.5575 7.87357 19.6132C7.41012 19.8311 6.94072 20.0396 6.49289 20.2868C5.12078 21.0442 4.03656 22.0847 3.38747 23.5405C2.97656 24.4624 2.79466 25.4337 2.76272 26.4367C2.73613 27.2718 2.84531 28.0851 3.1864 28.8566C3.70217 30.0233 4.54862 30.9039 5.57626 31.626C6.27557 32.1173 7.02458 32.5195 7.81277 32.8459C7.95338 32.9041 7.98637 32.9752 7.97674 33.1193C7.96002 33.3717 7.97454 33.6261 7.96642 33.8794C7.96431 33.9437 7.94394 34.0227 7.90244 34.0679C7.28854 34.7346 7.03935 35.5277 7.04179 36.4253C7.04578 37.8406 7.94596 39.0756 9.29794 39.4863C10.0759 39.7224 10.872 39.7314 11.6703 39.6506C11.9846 39.6188 12.2441 39.7564 12.5417 39.8231C12.5121 39.8706 12.5008 39.8942 12.4847 39.914C11.6378 40.9657 11.4093 42.1667 11.6234 43.4778C11.6332 43.538 11.5959 43.625 11.5513 43.6712C11.4206 43.8061 11.2631 43.9156 11.1376 44.0547C10.6203 44.6282 10.4159 45.2866 10.6805 46.0368C10.9415 46.7767 11.5231 47.1283 12.2631 47.2067C12.7183 47.2551 13.185 47.2533 13.6418 47.2159C15.0399 47.1015 16.4346 46.9437 17.8328 46.8304C21.4644 46.536 25.0981 46.2679 28.7289 45.9627C29.7232 45.8793 30.7232 45.7647 31.6967 45.5542C33.5358 45.1564 35.135 44.2606 36.5069 42.9706C37.5146 42.0229 38.2512 40.8977 38.5282 39.527C38.656 38.8947 38.6921 38.2387 38.7166 37.5916C38.7457 36.8227 38.6924 36.0537 38.4496 35.3141ZM11.9151 44.9373C11.9768 44.8494 12.0482 44.77 12.1207 44.705C12.2862 44.5568 12.4826 44.4321 12.68 44.3313C12.747 44.2972 12.8158 44.2664 12.8849 44.2372C12.914 44.2248 12.9676 44.2123 12.9892 44.1871C12.9949 44.1804 13.0026 44.1754 13 44.1652C12.9324 43.9052 12.854 43.6514 12.8014 43.3926C12.6706 42.7481 12.6753 42.07 12.9169 41.4516C13.0364 41.1462 13.2095 40.8639 13.4203 40.6137C13.6729 40.314 13.977 40.0641 14.2189 39.7539C14.3084 39.6392 14.3504 39.4922 14.3633 39.3487C14.3726 39.2444 14.4083 39.0013 14.2841 38.9478C14.2575 38.9365 14.228 38.9351 14.1991 38.9339C13.6822 38.9096 13.1456 38.8127 12.6505 38.6591C12.3466 38.5647 12.0135 38.3236 11.696 38.4053C11.1126 38.5551 10.5733 38.4996 9.98623 38.4435C9.51494 38.3985 9.04372 38.148 8.72739 37.7946C7.89109 36.861 8.04563 35.2007 9.11915 34.5178C9.15278 34.4964 9.18868 34.4742 9.20657 34.4386C9.28078 34.2907 9.16863 33.9852 9.15265 33.8285C9.1295 33.6014 9.12597 33.3723 9.14215 33.1446C9.17142 32.7331 9.52535 32.1939 9.93706 32.6091C10.1894 32.8635 10.3642 33.1796 10.5433 33.4866C10.7345 33.8143 10.9458 34.1285 11.1711 34.4337C11.2516 34.5425 11.3348 34.6512 11.4397 34.7365C11.5467 34.8233 11.6728 34.8831 11.8008 34.9337C12.2881 35.126 12.7881 35.1688 13.3011 35.0784C13.8275 34.9857 14.3449 34.9345 14.8511 34.7325C14.8667 34.7262 14.887 34.7318 14.927 34.7318C14.6177 36.0001 14.2571 37.2533 14.4233 38.5785C14.7467 36.8526 15.1652 35.1584 16.079 33.5856C15.7692 33.5513 15.5215 33.5257 15.274 33.4963C13.0511 33.2323 10.8656 32.8062 8.78187 31.9552C7.61403 31.4783 6.51973 30.8768 5.58725 30.0077C4.49587 28.9904 3.89648 27.7483 3.88253 26.2457C3.86921 24.8071 4.41785 23.603 5.43811 22.604C6.19968 21.8584 7.10243 21.3243 8.04447 20.8484C8.2876 20.7254 8.52359 20.5868 8.77212 20.4766C9.01347 20.3694 9.07696 20.1945 9.06174 19.9466C9.042 19.6223 9.03827 19.2961 9.0468 18.9714C9.07796 17.7983 9.39448 16.6976 9.93931 15.6669C10.9676 13.7212 12.4082 12.1357 14.2008 10.8732C15.6361 9.86244 17.2192 9.17853 18.9435 8.84879C19.326 8.77561 19.5259 8.63368 19.6545 8.23974C19.9308 7.39251 20.2493 6.54254 20.7399 5.79367C21.1287 5.20009 21.6542 4.57035 22.351 4.34307C23.164 4.07783 23.8046 4.56065 24.2201 5.23418C24.5378 5.74919 24.7608 6.35273 24.9801 6.91369C25.0934 7.20314 25.1957 7.49676 25.289 7.79334C25.3206 7.89421 25.4623 8.41713 25.5482 8.71329C24.0611 8.36235 22.6003 8.23867 21.1219 8.55147C24.7118 8.55576 27.747 9.87528 30.2847 12.402C29.9343 11.8136 29.522 11.2731 29.0335 10.8018C28.5444 10.3302 28.017 9.8982 27.4767 9.4226C27.7222 9.2578 27.9752 9.06928 28.2458 8.91077C28.8859 8.53578 29.6139 8.31978 30.3121 8.68711C31.4444 9.28286 31.7233 11.0173 31.5788 12.1585C31.5123 12.6837 31.3553 13.1969 31.2457 13.717C31.2327 13.7787 31.2442 13.8588 31.2737 13.9148C31.9438 15.1878 32.3999 16.5414 32.7829 17.9225C33.2408 19.5734 33.5804 21.2508 33.8 22.948C33.9229 23.8977 34.4557 24.696 34.733 25.5947C35.0035 26.471 35.0628 27.4114 34.9129 28.3156C34.6992 29.6056 34.0852 30.6532 33.0174 31.4138C32.1158 32.0559 31.0981 32.4362 30.0408 32.7208C28.7717 33.0624 27.4774 33.262 26.1704 33.3855C26.0762 33.3944 25.9822 33.4024 25.8361 33.4155C25.9889 33.5666 26.1028 33.6782 26.2153 33.791C27.3109 34.8881 28.148 36.208 28.555 37.7135C28.7794 38.5441 28.8717 39.4189 28.7281 40.2715C28.5995 41.0363 27.8356 41.8155 27.0821 41.9728C26.8186 42.0278 26.5722 41.9912 26.3587 41.8187C26.1694 41.6657 26.0028 41.477 25.8287 41.3068C25.8526 41.333 25.7187 41.488 25.7015 41.5094C25.6233 41.6063 25.5296 41.677 25.396 41.6587C25.2275 41.6354 25.1274 41.4668 25.053 41.3307C24.6549 40.6017 24.3936 39.7848 24.1325 38.9986C23.861 38.1815 23.6105 37.357 23.313 36.5489C23.193 36.2231 23.0996 35.9129 22.8723 35.6194C22.9264 35.8704 22.957 35.9816 22.995 36.213C23.0916 36.8007 23.1985 37.3893 23.3144 37.9734C23.4294 38.5531 23.557 39.1302 23.6952 39.7047C23.6945 39.7013 23.1886 39.7979 23.1403 39.807C22.9515 39.8427 22.7628 39.8823 22.5788 39.9389C22.2002 40.0557 21.8514 40.2581 21.5788 40.5485C21.0806 41.0795 20.9895 41.8502 21.3418 42.5479C21.4118 42.6868 21.4919 42.8202 21.5881 42.9934C20.9908 43.1121 20.5036 43.3927 20.1325 43.8639C19.7671 44.3277 19.6836 44.847 19.7855 45.4035C19.7534 45.4064 19.7211 45.4093 19.689 45.4122C19.5989 45.4203 19.5085 45.4284 19.4183 45.4365C19.2791 45.449 19.14 45.4615 19.0008 45.474C18.8217 45.49 18.6429 45.5061 18.4638 45.5222C18.2541 45.541 18.0446 45.5598 17.8349 45.5786C17.6039 45.5993 17.3729 45.6201 17.1417 45.6408C16.8982 45.6627 16.6549 45.6845 16.4114 45.7064C16.165 45.7285 15.9183 45.7506 15.6719 45.7728C15.4314 45.7943 15.1909 45.8159 14.9503 45.8375C14.725 45.8577 14.4997 45.878 14.2742 45.8982C14.0731 45.9163 13.8721 45.9343 13.6711 45.9523C13.5034 45.9674 13.3359 45.9824 13.1683 45.9975C13.0432 46.0087 12.9184 46.0199 12.7934 46.0311C12.472 46.06 12.0911 46.0688 11.8601 45.7997C11.6352 45.5378 11.7315 45.1992 11.9151 44.9373ZM29.8865 37.2342C29.8425 37.3941 29.7768 37.5466 29.7052 37.6954C29.6657 37.7774 29.6323 37.8624 29.5919 37.9439C29.5487 38.0314 29.4939 38.1063 29.4348 38.1833C28.9929 36.8344 28.3816 35.63 27.5851 34.4709C27.774 34.4029 27.952 34.3393 28.1425 34.2966C28.4826 34.2202 28.871 34.2005 29.1795 34.3907C29.5705 34.6315 29.7629 35.1631 29.8771 35.5861C30.0217 36.1222 30.0343 36.6974 29.8865 37.2342ZM37.6085 37.0786C37.6617 38.0979 37.5233 39.2002 37.0882 40.1306C36.6708 41.0234 35.9968 41.7693 35.2582 42.4085C34.7077 42.8852 34.1047 43.2935 33.4637 43.6302C32.8601 43.9388 32.2235 44.1803 31.5579 44.3134C30.7187 44.4813 29.8563 44.4998 29.0068 44.5761C28.1298 44.6548 27.2526 44.7335 26.3756 44.8123C25.306 44.9083 24.2362 45.0043 23.1666 45.1003C22.4769 45.1622 21.7872 45.2241 21.0973 45.286C21.0182 45.2931 20.939 45.3002 20.86 45.3073C20.7704 44.9428 20.8088 44.6182 21.0296 44.322C21.3691 43.8664 21.8295 43.5914 22.3798 43.4612C22.8286 43.3549 22.8198 43.3562 22.6191 42.932C22.458 42.5916 22.2961 42.2483 22.1762 41.8922C22.0781 41.6005 22.0455 41.2759 22.1826 40.9909C22.2903 40.7605 22.5221 40.5944 22.7421 40.4821C22.94 40.3811 23.1523 40.3131 23.3617 40.2414C23.4788 40.2013 23.6009 40.1465 23.7249 40.1335C23.7492 40.1309 23.7734 40.1274 23.7916 40.1476C23.801 40.1578 23.8066 40.1708 23.8122 40.1835C23.9744 40.5548 24.119 40.9334 24.2783 41.306C24.4192 41.6352 24.5755 42.0057 24.8449 42.2517C24.9778 42.3731 25.1534 42.4606 25.3352 42.4661C25.4501 42.4696 25.5589 42.4225 25.6489 42.3536C25.6688 42.3384 25.8765 42.1352 25.8584 42.117C26.105 42.3692 26.3132 42.5945 26.6683 42.6902C26.9866 42.776 27.288 42.7229 27.595 42.6265C29.1423 42.14 29.9164 40.8362 29.6677 39.1989C29.6454 39.0526 29.624 38.9062 29.6019 38.7577C30.0123 38.7574 30.4046 38.7572 30.7969 38.7568C30.8295 38.7568 30.8619 38.7573 30.8943 38.7561C31.1197 38.7481 31.3718 38.7722 31.4671 38.5274C31.6008 38.1842 31.6721 37.8229 31.849 37.4957C31.9489 37.3111 32.1022 37.0799 32.2977 36.9851C32.5116 36.8812 32.7719 36.9039 32.9916 36.973C33.378 37.0943 33.6859 37.3423 34.0052 37.6214C33.5433 38.0017 33.0187 38.233 32.4833 38.4752C32.8081 38.4384 33.0619 38.3655 33.4215 38.1979C33.4227 38.1974 33.4237 38.1968 33.425 38.1963C34.0467 37.9064 34.6235 37.5258 35.0979 37.0263C35.4647 36.6402 35.7321 36.1762 36.0545 35.755C36.3207 35.4072 36.7236 34.899 37.1665 35.3437C37.5698 35.749 37.5788 36.5252 37.6079 37.0667C37.6082 37.0703 37.6084 37.0746 37.6085 37.0786Z" fill="#565656"/>
</g>
</svg>
