<?xml version="1.0" encoding="UTF-8"?>
<svg width="24px" height="24px" viewBox="0 0 24 24" version="1.1" xmlns="http://www.w3.org/2000/svg" xmlns:xlink="http://www.w3.org/1999/xlink">
    <title>icon/Usage/Cart</title>
    <g id="icon/Usage/Cart" stroke="none" stroke-width="1" fill="none" fill-rule="evenodd">
        <path d="M18.145,11.844 L17.447,16.029 C17.4031009,16.2931612 17.2550882,16.5286794 17.0361091,16.6828106 C16.8171301,16.8369417 16.5454819,16.8968072 16.282,16.849 L4.913,14.78 C4.53828979,14.7120385 4.23470638,14.4371463 4.13,14.071 L2.306,7.685 C2.21971498,7.38333382 2.28001946,7.05865966 2.46887449,6.80809756 C2.65772953,6.55753546 2.95323644,6.41013937 3.267,6.41 L16.993,6.41 L17.606,3.783 C17.7306343,3.248577 18.2072364,2.87061086 18.756,2.8709997 L20.82,2.8709997 C21.471696,2.8709997 22,3.399304 22,4.051 C22,4.702696 21.471696,5.231 20.82,5.231 L19.692,5.231 L18.145,11.844 L18.145,11.844 Z" id="Main" fill="#050505"></path>
        <path d="M6.5,21 C5.67157288,21 5,20.3284271 5,19.5 C5,18.6715729 5.67157288,18 6.5,18 C7.32842712,18 8,18.6715729 8,19.5 C8,20.3284271 7.32842712,21 6.5,21 Z M15.5,21 C14.6715729,21 14,20.3284271 14,19.5 C14,18.6715729 14.6715729,18 15.5,18 C16.3284271,18 17,18.6715729 17,19.5 C17,20.3284271 16.3284271,21 15.5,21 L15.5,21 Z" id="Shade" fill-opacity="0.3" fill="#6C6A6B"></path>
    </g>
</svg>