<svg width="63" height="24" viewBox="0 0 63 24" fill="none" xmlns="http://www.w3.org/2000/svg">
<rect x="0.75" y="0.75" width="61.5" height="22.5" rx="9.25" fill="white"/>
<path d="M18.3879 11.9076C17.4204 11.2317 17.1202 9.88983 17.7045 8.85244C18.0556 8.22893 17.8729 7.61255 17.5846 7.24393C17.2964 6.87532 16.7481 6.55661 16.0745 6.76695C14.9535 7.11738 13.7376 6.52025 13.3071 5.40728C13.0485 4.73849 12.4622 4.5 11.9999 4.5C11.5377 4.5 10.9517 4.73849 10.6928 5.40728C10.2623 6.52025 9.04668 7.11738 7.92541 6.76695C7.25139 6.55661 6.70351 6.87532 6.41524 7.24393C6.12697 7.61255 5.94423 8.22857 6.29539 8.85244C6.87961 9.88983 6.57946 11.2317 5.61193 11.9076C5.03016 12.314 4.93302 12.95 5.03575 13.4099C5.13848 13.8697 5.49663 14.3995 6.19371 14.5082C7.35272 14.689 8.19411 15.7652 8.10885 16.9584C8.05749 17.6757 8.48412 18.1498 8.90062 18.3544C9.31713 18.5591 9.94642 18.6036 10.4643 18.1156C10.8947 17.7095 11.4475 17.5067 11.9999 17.5067C12.5527 17.5067 13.1051 17.7095 13.5356 18.1156C14.0534 18.6036 14.6827 18.5591 15.0992 18.3544C15.5157 18.1498 15.9424 17.6757 15.891 16.9584C15.8058 15.7652 16.6471 14.689 17.8061 14.5082C18.5029 14.3995 18.861 13.8697 18.9641 13.4099C19.0672 12.95 18.9697 12.314 18.3879 11.9076ZM11.9999 16.4753C9.46423 16.4753 7.40094 14.3706 7.40094 11.7832C7.40094 9.19574 9.46423 7.091 11.9999 7.091C14.5356 7.091 16.5989 9.19574 16.5989 11.7832C16.5989 14.3706 14.536 16.4753 11.9999 16.4753ZM11.9999 7.96584C9.93699 7.96584 8.2584 9.67843 8.2584 11.7832C8.2584 13.8879 9.93664 15.6005 11.9999 15.6005C14.0632 15.6005 15.7415 13.8879 15.7415 11.7832C15.7415 9.67843 14.0632 7.96584 11.9999 7.96584ZM13.9175 11.4131L11.589 13.1485C11.5149 13.2034 11.4265 13.2327 11.336 13.2327C11.3126 13.2327 11.2892 13.2309 11.2662 13.227C11.1526 13.2077 11.0513 13.1428 10.9852 13.0469L10.2888 12.0352C10.1526 11.8374 10.1994 11.5646 10.3933 11.4256C10.5872 11.2866 10.8545 11.3343 10.9905 11.5322L11.436 12.1792L13.4119 10.7069C13.603 10.5647 13.8714 10.6071 14.0112 10.8021C14.1506 10.9971 14.1086 11.2705 13.9175 11.4131Z" fill="#C46F72"/>
<path d="M23.602 11.114C23.602 10.162 23.8167 9.308 24.246 8.552C24.6753 7.78667 25.2587 7.18933 25.996 6.76C26.7427 6.33067 27.5687 6.116 28.474 6.116C29.538 6.116 30.4667 6.37267 31.26 6.886C32.0533 7.39933 32.632 8.12733 32.996 9.07H31.47C31.1993 8.482 30.8073 8.02933 30.294 7.712C29.79 7.39467 29.1833 7.236 28.474 7.236C27.7927 7.236 27.1813 7.39467 26.64 7.712C26.0987 8.02933 25.674 8.482 25.366 9.07C25.058 9.64867 24.904 10.33 24.904 11.114C24.904 11.8887 25.058 12.57 25.366 13.158C25.674 13.7367 26.0987 14.1847 26.64 14.502C27.1813 14.8193 27.7927 14.978 28.474 14.978C29.1833 14.978 29.79 14.824 30.294 14.516C30.8073 14.1987 31.1993 13.746 31.47 13.158H32.996C32.632 14.0913 32.0533 14.8147 31.26 15.328C30.4667 15.832 29.538 16.084 28.474 16.084C27.5687 16.084 26.7427 15.874 25.996 15.454C25.2587 15.0247 24.6753 14.432 24.246 13.676C23.8167 12.92 23.602 12.066 23.602 11.114ZM38.2385 16.126C37.5198 16.126 36.8665 15.9627 36.2785 15.636C35.6998 15.3093 35.2425 14.8473 34.9065 14.25C34.5798 13.6433 34.4165 12.9433 34.4165 12.15C34.4165 11.366 34.5845 10.6753 34.9205 10.078C35.2658 9.47133 35.7325 9.00933 36.3205 8.692C36.9085 8.36533 37.5665 8.202 38.2945 8.202C39.0225 8.202 39.6805 8.36533 40.2685 8.692C40.8565 9.00933 41.3185 9.46667 41.6545 10.064C41.9998 10.6613 42.1725 11.3567 42.1725 12.15C42.1725 12.9433 41.9951 13.6433 41.6405 14.25C41.2951 14.8473 40.8238 15.3093 40.2265 15.636C39.6291 15.9627 38.9665 16.126 38.2385 16.126ZM38.2385 15.006C38.6958 15.006 39.1251 14.8987 39.5265 14.684C39.9278 14.4693 40.2498 14.1473 40.4925 13.718C40.7445 13.2887 40.8705 12.766 40.8705 12.15C40.8705 11.534 40.7491 11.0113 40.5065 10.582C40.2638 10.1527 39.9465 9.83533 39.5545 9.63C39.1625 9.41533 38.7378 9.308 38.2805 9.308C37.8138 9.308 37.3845 9.41533 36.9925 9.63C36.6098 9.83533 36.3018 10.1527 36.0685 10.582C35.8351 11.0113 35.7185 11.534 35.7185 12.15C35.7185 12.7753 35.8305 13.3027 36.0545 13.732C36.2878 14.1613 36.5958 14.4833 36.9785 14.698C37.3611 14.9033 37.7811 15.006 38.2385 15.006ZM45.1215 9.574C45.3455 9.13533 45.6629 8.79467 46.0735 8.552C46.4935 8.30933 47.0022 8.188 47.5995 8.188V9.504H47.2635C45.8355 9.504 45.1215 10.2787 45.1215 11.828V16H43.8475V8.328H45.1215V9.574ZM56.0702 11.87C56.0702 12.1127 56.0562 12.3693 56.0282 12.64H49.8962C49.9429 13.396 50.1995 13.9887 50.6662 14.418C51.1422 14.838 51.7162 15.048 52.3882 15.048C52.9389 15.048 53.3962 14.922 53.7602 14.67C54.1335 14.4087 54.3949 14.0633 54.5442 13.634H55.9162C55.7109 14.3713 55.3002 14.9733 54.6842 15.44C54.0682 15.8973 53.3029 16.126 52.3882 16.126C51.6602 16.126 51.0069 15.9627 50.4282 15.636C49.8589 15.3093 49.4109 14.8473 49.0842 14.25C48.7575 13.6433 48.5942 12.9433 48.5942 12.15C48.5942 11.3567 48.7529 10.6613 49.0702 10.064C49.3875 9.46667 49.8309 9.00933 50.4002 8.692C50.9789 8.36533 51.6415 8.202 52.3882 8.202C53.1162 8.202 53.7602 8.36067 54.3202 8.678C54.8802 8.99533 55.3095 9.434 55.6082 9.994C55.9162 10.5447 56.0702 11.17 56.0702 11.87ZM54.7542 11.604C54.7542 11.1187 54.6469 10.7033 54.4322 10.358C54.2175 10.0033 53.9235 9.73733 53.5502 9.56C53.1862 9.37333 52.7802 9.28 52.3322 9.28C51.6882 9.28 51.1375 9.48533 50.6802 9.896C50.2322 10.3067 49.9755 10.876 49.9102 11.604H54.7542Z" fill="#C46F72"/>
<rect x="0.75" y="0.75" width="61.5" height="22.5" rx="9.25" stroke="#C46F72" stroke-width="1.5"/>
</svg>
