<svg width="40" height="40" viewBox="0 0 40 40" fill="none" xmlns="http://www.w3.org/2000/svg">
<path d="M20 40C31.0457 40 40 31.0457 40 20C40 8.9543 31.0457 0 20 0C8.9543 0 0 8.9543 0 20C0 31.0457 8.9543 40 20 40Z" fill="#F0F0F0"/>
<path d="M4.1344 7.82336C2.56331 9.86711 1.37893 12.2234 0.689087 14.7827H11.0938L4.1344 7.82336Z" fill="#0052B4"/>
<path d="M39.311 14.7827C38.6212 12.2234 37.4368 9.8679 35.8657 7.82336L28.9071 14.7827H39.311Z" fill="#0052B4"/>
<path d="M0.689087 25.2172C1.37893 27.7765 2.56331 30.132 4.1344 32.1765L11.093 25.2172H0.689087Z" fill="#0052B4"/>
<path d="M32.1766 4.13434C30.1328 2.56324 27.7766 1.37887 25.2172 0.689026V11.0937L32.1766 4.13434Z" fill="#0052B4"/>
<path d="M7.82355 35.8656C9.8673 37.4367 12.2235 38.6211 14.7829 39.3109V28.907L7.82355 35.8656Z" fill="#0052B4"/>
<path d="M14.7828 0.689026C12.2234 1.37887 9.86797 2.56324 7.82422 4.13434L14.7828 11.0929V0.689026Z" fill="#0052B4"/>
<path d="M25.2173 39.3109C27.7767 38.6211 30.1322 37.4367 32.1759 35.8656L25.2166 28.907L25.2173 39.3109Z" fill="#0052B4"/>
<path d="M28.9071 25.2172L35.8665 32.1765C37.4376 30.1328 38.6219 27.7765 39.3118 25.2172H28.9071Z" fill="#0052B4"/>
<path d="M39.8305 17.3914H22.6086V0.169531C21.7547 0.0578125 20.8844 0 20 0C19.1156 0 18.2453 0.0578125 17.3914 0.169531V17.3914H0.169531C0.0578125 18.2453 0 19.1156 0 20C0 20.8844 0.0578125 21.7547 0.169531 22.6086H17.3914V39.8305C18.2453 39.9414 19.1156 40 20 40C20.8844 40 21.7547 39.9422 22.6086 39.8305V22.6086H39.8305C39.9414 21.7547 40 20.8844 40 20C40 19.1156 39.9422 18.2453 39.8305 17.3914Z" fill="#D80027"/>
<path d="M25.217 25.2172L34.142 34.1422C34.5522 33.732 34.9444 33.3031 35.3178 32.8586L27.6772 25.2179L25.217 25.2172Z" fill="#D80027"/>
<path d="M14.7829 25.2172L5.85785 34.1422C6.26801 34.5523 6.69691 34.9445 7.14144 35.3179L14.7821 27.6773L14.7829 25.2172Z" fill="#D80027"/>
<path d="M14.7827 14.7828L5.85773 5.85782C5.44757 6.26798 5.05538 6.69688 4.68195 7.14141L12.3226 14.782L14.7827 14.7828Z" fill="#D80027"/>
<path d="M25.217 14.7829L34.142 5.85785C33.7319 5.44769 33.303 5.05551 32.8584 4.68207L25.2178 12.3227V14.7829H25.217Z" fill="#D80027"/>
<path d="M39 20C39 30.4934 30.4934 39 20 39C9.50659 39 1 30.4934 1 20C1 9.50659 9.50659 1 20 1C30.4934 1 39 9.50659 39 20Z" stroke="white" stroke-width="2"/>
</svg>
