<svg width="24" height="24" viewBox="0 0 24 24" fill="none" xmlns="http://www.w3.org/2000/svg">
<path d="M8.2499 2.64477V7.96913C8.8594 7.74568 9.43341 7.83609 9.91559 8.16889L12.4717 10.1442C12.938 10.4619 13.2499 11.0638 13.2499 11.7113C13.2499 12.3588 12.938 12.9607 12.415 13.3202L9.97195 15.2124C9.38666 15.6192 8.82517 15.664 8.25031 15.453C8.25031 15.6549 8.25031 19.624 8.25031 19.4884C8.25031 19.8449 8.5296 20.1329 8.87526 20.1329H14.5002V6.51222C14.5002 5.86599 14.82 5.2555 15.3406 4.89988L19.0882 2.00027H8.87484C8.52918 2.00027 8.2499 2.28872 8.2499 2.64477ZM21.9992 2.64477C21.9992 2.41271 21.8781 2.19874 21.6823 2.08379C21.4865 1.96927 21.2461 1.97228 21.0524 2.09197L16.0528 5.95942C15.8649 6.07566 15.7497 6.28533 15.7497 6.51179V23.3554C15.7497 23.5879 15.8703 23.8019 16.0665 23.9164C16.2619 24.0305 16.5024 24.0279 16.6965 23.9082L21.6965 20.0412C21.8844 19.9245 22 19.7148 22 19.4884L21.9992 2.64477ZM17.6258 14.9338C17.2805 14.9338 17.0008 14.6454 17.0008 14.2893C17.0008 13.9333 17.2805 13.6448 17.6258 13.6448C17.971 13.6448 18.2507 13.9333 18.2507 14.2893C18.2507 14.6454 17.9706 14.9338 17.6258 14.9338ZM2.62495 13.0003H8.2499V13.6448C8.2499 13.8829 8.37681 14.1012 8.58011 14.2131C8.7805 14.3237 9.02764 14.3143 9.22134 14.1808L11.7211 12.2473C11.8952 12.1276 11.9996 11.9266 11.9996 11.7113C11.9996 11.496 11.8952 11.2945 11.7211 11.1749L9.22134 9.24091C9.03014 9.1096 8.78258 9.09755 8.58011 9.20905C8.37681 9.32099 8.2499 9.5397 8.2499 9.77735V10.4223H2.62495C2.27929 10.4223 2 10.7107 2 11.0668V12.3558C2 12.7123 2.27929 13.0003 2.62495 13.0003Z" />
</svg>
