<?xml version="1.0" encoding="utf-8"?>
<svg width="103" height="24" viewBox="0 0 103 24" fill="none" xmlns="http://www.w3.org/2000/svg">
  <rect width="103" height="24" rx="12" fill="#E0E0E0"/>
  <rect x="37.717" width="64.283" height="22.48" rx="11" fill="#FF7697" style="" y="1"/>
  <path d="M10.3656 15.112H13.2936V16H9.27361V7.636H10.3656V15.112ZM15.0173 8.356C14.8093 8.356 14.6333 8.284 14.4893 8.14C14.3453 7.996 14.2733 7.82 14.2733 7.612C14.2733 7.404 14.3453 7.228 14.4893 7.084C14.6333 6.94 14.8093 6.868 15.0173 6.868C15.2173 6.868 15.3853 6.94 15.5213 7.084C15.6653 7.228 15.7373 7.404 15.7373 7.612C15.7373 7.82 15.6653 7.996 15.5213 8.14C15.3853 8.284 15.2173 8.356 15.0173 8.356ZM15.5453 9.424V16H14.4533V9.424H15.5453ZM19.8544 14.992L21.8944 9.424H23.0584L20.4784 16H19.2064L16.6264 9.424H17.8024L19.8544 14.992ZM30.133 12.46C30.133 12.668 30.121 12.888 30.097 13.12H24.841C24.881 13.768 25.101 14.276 25.501 14.644C25.909 15.004 26.401 15.184 26.977 15.184C27.449 15.184 27.841 15.076 28.153 14.86C28.473 14.636 28.697 14.34 28.825 13.972H30.001C29.825 14.604 29.473 15.12 28.945 15.52C28.417 15.912 27.761 16.108 26.977 16.108C26.353 16.108 25.793 15.968 25.297 15.688C24.809 15.408 24.425 15.012 24.145 14.5C23.865 13.98 23.725 13.38 23.725 12.7C23.725 12.02 23.861 11.424 24.133 10.912C24.405 10.4 24.785 10.008 25.273 9.736C25.769 9.456 26.337 9.316 26.977 9.316C27.601 9.316 28.153 9.452 28.633 9.724C29.113 9.996 29.481 10.372 29.737 10.852C30.001 11.324 30.133 11.86 30.133 12.46ZM29.005 12.232C29.005 11.816 28.913 11.46 28.729 11.164C28.545 10.86 28.293 10.632 27.973 10.48C27.661 10.32 27.313 10.24 26.929 10.24C26.377 10.24 25.905 10.416 25.513 10.768C25.129 11.12 24.909 11.608 24.853 12.232H29.005Z" style="fill: rgb(130, 130, 130);"/>
  <path d="M51.0895 7.636V8.524H47.4535V11.344H50.4055V12.232H47.4535V16H46.3615V7.636H51.0895ZM52.9724 8.356C52.7644 8.356 52.5884 8.284 52.4444 8.14C52.3004 7.996 52.2284 7.82 52.2284 7.612C52.2284 7.404 52.3004 7.228 52.4444 7.084C52.5884 6.94 52.7644 6.868 52.9724 6.868C53.1724 6.868 53.3404 6.94 53.4764 7.084C53.6204 7.228 53.6924 7.404 53.6924 7.612C53.6924 7.82 53.6204 7.996 53.4764 8.14C53.3404 8.284 53.1724 8.356 52.9724 8.356ZM53.5004 9.424V16H52.4084V9.424H53.5004ZM58.5655 9.304C59.3655 9.304 60.0135 9.548 60.5095 10.036C61.0055 10.516 61.2535 11.212 61.2535 12.124V16H60.1735V12.28C60.1735 11.624 60.0095 11.124 59.6815 10.78C59.3535 10.428 58.9055 10.252 58.3375 10.252C57.7615 10.252 57.3015 10.432 56.9575 10.792C56.6215 11.152 56.4535 11.676 56.4535 12.364V16H55.3615V9.424H56.4535V10.36C56.6695 10.024 56.9615 9.764 57.3295 9.58C57.7055 9.396 58.1175 9.304 58.5655 9.304ZM63.6013 8.356C63.3933 8.356 63.2173 8.284 63.0733 8.14C62.9293 7.996 62.8573 7.82 62.8573 7.612C62.8573 7.404 62.9293 7.228 63.0733 7.084C63.2173 6.94 63.3933 6.868 63.6013 6.868C63.8013 6.868 63.9693 6.94 64.1053 7.084C64.2493 7.228 64.3213 7.404 64.3213 7.612C64.3213 7.82 64.2493 7.996 64.1053 8.14C63.9693 8.284 63.8013 8.356 63.6013 8.356ZM64.1293 9.424V16H63.0373V9.424H64.1293ZM68.3184 16.108C67.8144 16.108 67.3624 16.024 66.9624 15.856C66.5624 15.68 66.2464 15.44 66.0144 15.136C65.7824 14.824 65.6544 14.468 65.6304 14.068H66.7584C66.7904 14.396 66.9424 14.664 67.2144 14.872C67.4944 15.08 67.8584 15.184 68.3064 15.184C68.7224 15.184 69.0504 15.092 69.2904 14.908C69.5304 14.724 69.6504 14.492 69.6504 14.212C69.6504 13.924 69.5224 13.712 69.2664 13.576C69.0104 13.432 68.6144 13.292 68.0784 13.156C67.5904 13.028 67.1904 12.9 66.8784 12.772C66.5744 12.636 66.3104 12.44 66.0864 12.184C65.8704 11.92 65.7624 11.576 65.7624 11.152C65.7624 10.816 65.8624 10.508 66.0624 10.228C66.2624 9.948 66.5464 9.728 66.9144 9.568C67.2824 9.4 67.7024 9.316 68.1744 9.316C68.9024 9.316 69.4904 9.5 69.9384 9.868C70.3864 10.236 70.6264 10.74 70.6584 11.38H69.5664C69.5424 11.036 69.4024 10.76 69.1464 10.552C68.8984 10.344 68.5624 10.24 68.1384 10.24C67.7464 10.24 67.4344 10.324 67.2024 10.492C66.9704 10.66 66.8544 10.88 66.8544 11.152C66.8544 11.368 66.9224 11.548 67.0584 11.692C67.2024 11.828 67.3784 11.94 67.5864 12.028C67.8024 12.108 68.0984 12.2 68.4744 12.304C68.9464 12.432 69.3304 12.56 69.6264 12.688C69.9224 12.808 70.1744 12.992 70.3824 13.24C70.5984 13.488 70.7104 13.812 70.7184 14.212C70.7184 14.572 70.6184 14.896 70.4184 15.184C70.2184 15.472 69.9344 15.7 69.5664 15.868C69.2064 16.028 68.7904 16.108 68.3184 16.108ZM75.5239 9.304C76.0199 9.304 76.4679 9.412 76.8679 9.628C77.2679 9.836 77.5799 10.152 77.8039 10.576C78.0359 11 78.1519 11.516 78.1519 12.124V16H77.0719V12.28C77.0719 11.624 76.9079 11.124 76.5799 10.78C76.2519 10.428 75.8039 10.252 75.2359 10.252C74.6599 10.252 74.1999 10.432 73.8559 10.792C73.5199 11.152 73.3519 11.676 73.3519 12.364V16H72.2599V7.12H73.3519V10.36C73.5679 10.024 73.8639 9.764 74.2399 9.58C74.6239 9.396 75.0519 9.304 75.5239 9.304ZM85.9357 12.46C85.9357 12.668 85.9237 12.888 85.8997 13.12H80.6437C80.6837 13.768 80.9037 14.276 81.3037 14.644C81.7117 15.004 82.2037 15.184 82.7797 15.184C83.2517 15.184 83.6437 15.076 83.9557 14.86C84.2757 14.636 84.4997 14.34 84.6277 13.972H85.8037C85.6277 14.604 85.2757 15.12 84.7477 15.52C84.2197 15.912 83.5637 16.108 82.7797 16.108C82.1557 16.108 81.5957 15.968 81.0997 15.688C80.6117 15.408 80.2277 15.012 79.9477 14.5C79.6677 13.98 79.5277 13.38 79.5277 12.7C79.5277 12.02 79.6637 11.424 79.9357 10.912C80.2077 10.4 80.5877 10.008 81.0757 9.736C81.5717 9.456 82.1397 9.316 82.7797 9.316C83.4037 9.316 83.9557 9.452 84.4357 9.724C84.9157 9.996 85.2837 10.372 85.5397 10.852C85.8037 11.324 85.9357 11.86 85.9357 12.46ZM84.8077 12.232C84.8077 11.816 84.7157 11.46 84.5317 11.164C84.3477 10.86 84.0957 10.632 83.7757 10.48C83.4637 10.32 83.1157 10.24 82.7317 10.24C82.1797 10.24 81.7077 10.416 81.3157 10.768C80.9317 11.12 80.7117 11.608 80.6557 12.232H84.8077ZM86.9691 12.688C86.9691 12.016 87.1051 11.428 87.3771 10.924C87.6491 10.412 88.0211 10.016 88.4931 9.736C88.9731 9.456 89.5091 9.316 90.1011 9.316C90.6131 9.316 91.0891 9.436 91.5291 9.676C91.9691 9.908 92.3051 10.216 92.5371 10.6V7.12H93.6411V16H92.5371V14.764C92.3211 15.156 92.0011 15.48 91.5771 15.736C91.1531 15.984 90.6571 16.108 90.0891 16.108C89.5051 16.108 88.9731 15.964 88.4931 15.676C88.0211 15.388 87.6491 14.984 87.3771 14.464C87.1051 13.944 86.9691 13.352 86.9691 12.688ZM92.5371 12.7C92.5371 12.204 92.4371 11.772 92.2371 11.404C92.0371 11.036 91.7651 10.756 91.4211 10.564C91.0851 10.364 90.7131 10.264 90.3051 10.264C89.8971 10.264 89.5251 10.36 89.1891 10.552C88.8531 10.744 88.5851 11.024 88.3851 11.392C88.1851 11.76 88.0851 12.192 88.0851 12.688C88.0851 13.192 88.1851 13.632 88.3851 14.008C88.5851 14.376 88.8531 14.66 89.1891 14.86C89.5251 15.052 89.8971 15.148 90.3051 15.148C90.7131 15.148 91.0851 15.052 91.4211 14.86C91.7651 14.66 92.0371 14.376 92.2371 14.008C92.4371 13.632 92.5371 13.196 92.5371 12.7Z" style="fill: rgb(255, 255, 255);"/>
</svg>