<svg width="25" height="24" viewBox="0 0 25 24" fill="none" xmlns="http://www.w3.org/2000/svg">
<path d="M6.42616 17.7848C4.8089 16.2515 3.81978 14.2647 3.59008 12.1214C2.73066 13.1703 2.26463 14.4566 2.26658 15.8066C2.26814 16.6847 2.47284 17.5574 2.86075 18.3469L2.06071 20.5938C1.9232 20.9802 2.0236 21.3994 2.32283 21.6886C2.53339 21.8918 2.81114 22 3.0967 22C3.21702 22 3.33851 21.9808 3.45687 21.9416L5.78551 21.1695C6.60313 21.5438 7.50786 21.7414 8.41767 21.7429C9.84391 21.7448 11.2014 21.2777 12.2991 20.417C10.0916 20.2243 8.0325 19.3071 6.42616 17.7848ZM21.9293 17.9981L20.7675 14.7356C21.3273 13.631 21.6234 12.4023 21.6254 11.1661C21.6289 9.01685 20.7671 6.98444 19.1991 5.44363C17.6306 3.90245 15.5407 3.03498 13.314 3.00105C11.0053 2.96598 8.83488 3.81348 7.20316 5.38784C5.57143 6.96257 4.69326 9.05681 4.72959 11.2853C4.76475 13.4342 5.66363 15.4511 7.26058 16.9648C8.85402 18.475 10.9545 19.3067 13.1769 19.3063C13.1812 19.3063 13.1859 19.3063 13.1902 19.3063C14.4711 19.3044 15.7442 19.0187 16.8888 18.4784L20.2694 19.5996C20.4105 19.6464 20.5546 19.669 20.6976 19.669C21.0371 19.669 21.3672 19.5404 21.6176 19.2988C21.973 18.9557 22.0926 18.4573 21.9293 17.9981ZM13.993 13.9827H9.63062C9.3017 13.9827 9.03528 13.7256 9.03528 13.4082C9.03528 13.0907 9.3017 12.8336 9.63062 12.8336H13.993C14.3219 12.8336 14.5883 13.0907 14.5883 13.4082C14.5883 13.7256 14.3219 13.9827 13.993 13.9827ZM16.7232 11.62H9.63062C9.3017 11.62 9.03528 11.3629 9.03528 11.0455C9.03528 10.7281 9.3017 10.4709 9.63062 10.4709H16.7232C17.0521 10.4709 17.3185 10.7281 17.3185 11.0455C17.3185 11.3629 17.0521 11.62 16.7232 11.62ZM16.7232 9.25737H9.63062C9.3017 9.25737 9.03528 9.00026 9.03528 8.68282C9.03528 8.36539 9.3017 8.10827 9.63062 8.10827H16.7232C17.0521 8.10827 17.3185 8.36539 17.3185 8.68282C17.3185 8.99988 17.0521 9.25737 16.7232 9.25737Z" />
</svg>
