<svg width="25" height="24" viewBox="0 0 25 24" fill="none" xmlns="http://www.w3.org/2000/svg">
<path d="M21.3067 19.4062H19.6399V14.1504H21.3067C21.5474 14.1504 21.7711 14.0296 21.8975 13.831C22.0239 13.6324 22.0354 13.3845 21.928 13.1756L20.7705 10.9295C20.6529 10.7013 20.4126 10.5571 20.1492 10.5571H3.85239C3.58941 10.5571 3.34865 10.7013 3.23106 10.9295L2.07358 13.1756C1.9657 13.3845 1.97728 13.6324 2.10414 13.831C2.23099 14.0296 2.45416 14.1504 2.69491 14.1504H4.36168V19.4062H2.69491C2.31156 19.4062 2.00043 19.7081 2.00043 20.0801V22.3262C2.00043 22.6981 2.31156 23 2.69491 23H21.3067C21.69 23 22.0012 22.6981 22.0012 22.3262V20.0801C22.0012 19.7081 21.6905 19.4062 21.3067 19.4062ZM10.4732 19.4062H7.83411V14.1504H10.4732V19.4062ZM16.1679 19.4062H13.5289V14.1504H16.1679V19.4062ZM12.6955 6.13992V4.7168H15.705C16.0883 4.7168 16.3994 4.41492 16.3994 4.04297V1.34766C16.3994 0.975703 16.0883 0.673828 15.705 0.673828H12.6955C12.6955 0.301875 12.3844 0 12.001 0C11.6177 0 11.3065 0.301875 11.3065 0.673828V6.13992L6.24559 9.20898H17.7565L12.6955 6.13992Z"/>
</svg>
