<svg width="24" height="24" viewBox="0 0 24 24" fill="none" xmlns="http://www.w3.org/2000/svg">
<path d="M1.01001 11.5575C1.01001 10.7275 1.68001 10.0575 2.51001 10.0575L17.87 10.0575L14.37 6.5575C13.78 5.9675 13.78 5.0175 14.37 4.4375C14.66 4.1475 15.05 3.9975 15.43 3.9975C15.81 3.9975 16.2 4.1475 16.49 4.4375L22.55 10.4975C22.69 10.6375 22.8 10.8075 22.88 10.9875C22.88 10.9975 22.88 11.0075 22.89 11.0075C22.95 11.1875 22.99 11.3675 22.99 11.5575C22.99 11.7475 22.95 11.9375 22.88 12.1075C22.88 12.1175 22.88 12.1275 22.87 12.1275C22.8 12.3175 22.69 12.4875 22.55 12.6275L16.49 18.6775C15.9 19.2675 14.95 19.2675 14.37 18.6775C13.78 18.0875 13.78 17.1375 14.37 16.5575L17.87 13.0575L2.51001 13.0575C1.68001 13.0575 1.01001 12.3875 1.01001 11.5575ZM10.19 16.0575L2.50001 16.0575C1.67001 16.0575 1.00001 16.7275 1.00001 17.5575C1.00001 18.3875 1.67001 19.0575 2.50001 19.0575L10.19 19.0575C11.02 19.0575 11.69 18.3875 11.69 17.5575C11.69 16.7275 11.02 16.0575 10.19 16.0575ZM2.51 7.0575L10.19 7.0575C11.02 7.0575 11.69 6.3875 11.69 5.5575C11.69 4.7275 11.02 4.0575 10.19 4.0575L2.5 4.0575C1.67 4.0575 1 4.7275 1 5.5575C1 6.3875 1.68 7.0575 2.51 7.0575Z" />
</svg>
