<svg width="24" height="24" viewBox="0 0 24 24" fill="none" xmlns="http://www.w3.org/2000/svg">
<path d="M22.48 14H1.5C0.67 14 0 13.33 0 12.5C0 11.67 0.67 11 1.5 11H22.48C23.31 11 23.98 11.67 23.98 12.5C23.98 13.33 23.31 14 22.48 14ZM23.98 6.5C23.98 5.67 23.31 5 22.48 5H10.06C9.23 5 8.56 5.67 8.56 6.5C8.56 7.33 9.23 8 10.06 8H22.49C23.31 8 23.98 7.33 23.98 6.5ZM23.98 18.5C23.98 17.67 23.31 17 22.48 17H7.51C6.68 17 6.01 17.67 6.01 18.5C6.01 19.33 6.68 20 7.51 20H22.48C23.31 20 23.98 19.33 23.98 18.5Z" />
</svg>
