<svg width="16" height="17" viewBox="0 0 16 17" fill="none" xmlns="http://www.w3.org/2000/svg">
<path d="M14 13.4831C14 14.0444 13.5444 14.5 12.9831 14.5H3.01695C2.45559 14.5 2 14.0444 2 13.4831V3.51695C2 2.95559 2.45559 2.5 3.01695 2.5C3.57831 2.5 4.0339 2.95559 4.0339 3.51695V12.4661H12.9831C13.5444 12.4661 14 12.9217 14 13.4831ZM14 3.51695C14 3.38678 13.9756 3.25661 13.9186 3.13458C13.8129 2.88237 13.6176 2.68712 13.3654 2.58136C13.2434 2.52441 13.1132 2.5 12.9831 2.5H7.99593C7.43458 2.5 6.97898 2.95559 6.97898 3.51695C6.97898 4.07831 7.43458 4.5339 7.99593 4.5339H10.5261L6.02712 9.03288C5.62847 9.43152 5.62847 10.0742 6.02712 10.4729C6.22237 10.6681 6.48271 10.7739 6.74305 10.7739C7.00339 10.7739 7.26373 10.6763 7.45898 10.4729L11.958 5.9739V8.50407C11.958 9.06542 12.4136 9.52102 12.9749 9.52102C13.5363 9.52102 13.9919 9.06542 13.9919 8.50407L14 3.51695Z" />
</svg>
