<svg width="16" height="16" viewBox="0 0 16 16" fill="none" xmlns="http://www.w3.org/2000/svg">
<path d="M8 0C3.59 0 0 3.59 0 8C0 12.41 3.59 16 8 16C12.41 16 16 12.41 16 8C16 3.59 12.41 0 8 0ZM8 12.67C7.63 12.67 7.33 12.37 7.33 12C7.33 11.63 7.63 11.33 8 11.33C8.37 11.33 8.67 11.63 8.67 12C8.67 12.37 8.37 12.67 8 12.67ZM9.06 8.43C8.82 8.54 8.67 8.77 8.67 9.03V9.33C8.67 9.7 8.37 10 8 10C7.63 10 7.33 9.7 7.33 9.33V9.03C7.33 8.25 7.79 7.54 8.49 7.21C9.18 6.9 9.67 6.07 9.67 5.67C9.67 4.75 8.92 4 8 4C7.08 4 6.33 4.75 6.33 5.67C6.33 6.04 6.03 6.34 5.66 6.34C5.29 6.34 5 6.03 5 5.67C5 4.02 6.35 2.67 8 2.67C9.65 2.67 11 4.02 11 5.67C11 6.57 10.22 7.89 9.06 8.43Z" />
</svg>
