<svg width="24" height="24" viewBox="0 0 24 24" fill="none" xmlns="http://www.w3.org/2000/svg">
<path d="M10.7342 16.4779C11.9125 16.4779 13.0033 16.1159 13.9133 15.5088L17.2092 18.8073C17.4658 19.0642 17.8975 19.0642 18.1658 18.8073L18.8075 18.1651C19.0642 17.9083 19.0642 17.4762 18.8075 17.2077L15.5 13.9208C16.1067 13.01 16.4683 11.9183 16.4683 10.7389C16.4683 7.57465 13.8958 5 10.7342 5C7.5725 5 5 7.57465 5 10.7389C5 13.8974 7.56083 16.4779 10.7342 16.4779ZM10.7342 7.24771C12.6592 7.24771 14.2167 8.81234 14.2167 10.7331C14.2167 12.6539 12.6533 14.2185 10.7342 14.2185C8.815 14.2185 7.25167 12.6539 7.25167 10.7331C7.25167 8.81234 8.80917 7.24771 10.7342 7.24771Z" />
</svg>
