<svg width="24" height="24" viewBox="0 0 24 24" fill="none" xmlns="http://www.w3.org/2000/svg">
<path d="M24 12C24 11.11 23.36 10.16 22.56 9.88C21.77 9.59 21 8.91 20.78 8.37C20.56 7.83 20.61 6.8 20.98 6.04C21.34 5.28 21.12 4.15 20.49 3.52C19.86 2.89 18.73 2.67 17.97 3.03C17.21 3.39 16.18 3.45 15.64 3.23C15.1 3 14.41 2.23 14.13 1.44C13.85 0.64 12.89 0 12 0C11.11 0 10.15 0.64 9.87 1.44C9.59 2.23 8.9 3 8.36 3.22C7.82 3.44 6.79 3.38 6.03 3.02C5.27 2.66 4.14 2.88 3.51 3.51C2.88 4.14 2.66 5.27 3.02 6.03C3.38 6.79 3.44 7.82 3.21 8.36C2.98 8.9 2.23 9.59 1.44 9.88C0.64 10.16 0 11.11 0 12C0 12.89 0.64 13.85 1.44 14.13C2.23 14.41 3 15.1 3.22 15.64C3.44 16.18 3.39 17.21 3.02 17.97C2.65 18.73 2.88 19.86 3.51 20.49C4.14 21.12 5.27 21.34 6.03 20.98C6.79 20.62 7.82 20.56 8.36 20.78C8.9 21 9.59 21.78 9.87 22.57C10.15 23.36 11.11 24 12 24C12.89 24 13.85 23.36 14.13 22.57C14.41 21.78 15.1 21.01 15.64 20.78C16.18 20.56 17.21 20.61 17.97 20.98C18.73 21.34 19.86 21.12 20.49 20.49C21.12 19.86 21.34 18.73 20.98 17.97C20.62 17.21 20.56 16.18 20.78 15.64C21 15.1 21.77 14.41 22.57 14.13C23.36 13.85 24 12.89 24 12ZM12 16.4C9.57 16.4 7.6 14.43 7.6 12C7.6 9.57 9.57 7.6 12 7.6C14.43 7.6 16.4 9.57 16.4 12C16.4 14.43 14.43 16.4 12 16.4Z" />
</svg>
