<svg width="16" height="16" viewBox="0 0 16 16" fill="none" xmlns="http://www.w3.org/2000/svg">
<g clip-path="url(#clip0)">
<path d="M11.37 8.19642C11.37 8.10336 11.38 8.04132 11.38 7.96895C11.38 6.94531 11.38 5.93202 11.38 4.90839C11.38 4.24664 11 3.86407 10.37 3.86407C9.24 3.86407 8.12 3.86407 6.99 3.86407C6.35 3.86407 5.8 3.46082 5.62 2.86112C5.34 1.98224 5.96 1.03099 6.86 1.02065C8.47 0.999966 10.08 0.989626 11.69 1.02065C13.04 1.05166 14.13 2.22005 14.15 3.62626C14.16 5.05314 14.15 6.48003 14.15 7.91725C14.15 7.99997 14.15 8.08268 14.15 8.20676C14.46 8.14472 14.75 8.09302 15.04 8.04133C15.13 8.02065 15.23 7.99997 15.32 7.97929C15.61 7.91725 15.82 8.01031 15.94 8.23778C16.05 8.45491 16.02 8.69273 15.82 8.89952C15.49 9.25107 15.15 9.60262 14.82 9.94384C14.3 10.4815 13.78 11.0192 13.25 11.5672C12.9 11.9291 12.65 11.9291 12.3 11.5672C11.46 10.6986 10.62 9.81976 9.77 8.95122C9.62 8.79613 9.51 8.64103 9.55 8.41356C9.6 8.09302 9.87 7.91725 10.2 7.97929C10.58 8.04133 10.96 8.12404 11.37 8.19642ZM1.85 8.08268C1.85 9.49923 1.84 10.9261 1.85 12.3427C1.86 13.7489 2.94 14.9379 4.29 14.9689C5.9 15.0103 7.52 14.9896 9.14 14.9689C9.99 14.9586 10.6 14.1107 10.42 13.2526C10.28 12.5908 9.71 12.1255 9.01 12.1152C7.89 12.1152 6.77 12.1152 5.65 12.1152C4.99 12.1152 4.62 11.7326 4.62 11.0502C4.62 10.0369 4.62 9.0236 4.62 8.01031C4.62 7.94827 4.63 7.87589 4.63 7.78283C5.02 7.85521 5.39 7.92759 5.76 8.01031C6.06 8.07234 6.26 7.99997 6.39 7.77249C6.52 7.53468 6.49 7.3072 6.27 7.07973C5.39 6.19051 4.52 5.29096 3.65 4.3914C3.37 4.10189 3.1 4.10189 2.82 4.3914C1.94 5.29096 1.07 6.19051 0.2 7.10041C-0.0200002 7.32788 -0.0500003 7.5657 0.0799997 7.79317C0.2 8.02065 0.4 8.08268 0.7 8.02065C1.07 7.94827 1.44 7.87589 1.85 7.79317C1.85 7.92759 1.85 7.99997 1.85 8.08268Z" />
</g>
<defs>
<clipPath id="clip0">
<rect width="16" height="16" fill="white"/>
</clipPath>
</defs>
</svg>
