<svg width="25" height="24" viewBox="0 0 25 24" fill="none" xmlns="http://www.w3.org/2000/svg">
<g clip-path="url(#clip0)">
<path d="M8.6798 17.3601V23.0001L11.5 20.1801L8.6798 17.3601ZM12.5 21.1801L9.67986 24.0001H15.3202L12.5 21.1801ZM9.67986 16.3701L12.5 19.1901L15.3202 16.3701H9.67986ZM13.4901 20.1801L16.3102 23.0001V17.3601L13.4901 20.1801ZM24.4506 11.7301L21.1405 3.74006C21.0705 3.57006 20.9304 3.43006 20.7604 3.36006L12.77 0.0500586C12.6 -0.0199414 12.4 -0.0199414 12.23 0.0500586L4.23957 3.36006C4.06956 3.43006 3.92955 3.57006 3.85955 3.74006L0.549376 11.7301C0.459371 11.9501 0.479372 12.1901 0.61938 12.3901C0.759387 12.5901 0.969398 12.7001 1.19941 12.7001H2.75949V23.3001C2.75949 23.6901 3.06951 24.0001 3.45953 24.0001H7.27973V15.6701C7.27973 15.2801 7.58975 14.9701 7.97977 14.9701H17.0202C17.4103 14.9701 17.7203 15.2801 17.7203 15.6701V24.0001H21.5405C21.9305 24.0001 22.2405 23.6901 22.2405 23.3001V12.7001H23.8006C24.0306 12.7001 24.2506 12.5801 24.3806 12.3901C24.5106 12.2001 24.5406 11.9501 24.4506 11.7301ZM15.4602 9.74006C15.4602 10.1301 15.1501 10.4401 14.7601 10.4401H10.2399C9.84986 10.4401 9.53985 10.1301 9.53985 9.74006V5.22006C9.53985 4.83006 9.84986 4.52006 10.2399 4.52006H14.7601C15.1501 4.52006 15.4602 4.83006 15.4602 5.22006V9.74006ZM10.9399 5.92006H14.0501V9.03006H10.9399V5.92006Z" />
</g>
<defs>
<clipPath id="clip0">
<rect width="24.0013" height="24" fill="white" transform="translate(0.499359)"/>
</clipPath>
</defs>
</svg>
