<svg width="25" height="24" viewBox="0 0 25 24" fill="none" xmlns="http://www.w3.org/2000/svg">
<g clip-path="url(#clip0)">
<path d="M8.49978 7.86C13.08 7.86 16.5002 6.05 16.5002 4.43C16.5002 2.81 13.08 1 8.49978 1C3.91954 1 0.499359 2.81 0.499359 4.43C0.499359 6.05 3.91954 7.86 8.49978 7.86ZM8.49978 21.57C9.16981 21.57 9.80985 21.53 10.4199 21.46C9.89985 20.8 9.47983 20.06 9.15981 19.27C8.9398 19.28 8.71979 19.29 8.49978 19.29C5.87964 19.29 3.40951 18.77 1.51941 17.83C1.14939 17.64 0.809375 17.45 0.499359 17.23V18.14C0.499359 19.76 3.91954 21.57 8.49978 21.57ZM8.49978 17C8.51978 17 8.54978 17 8.56978 17C8.51978 16.62 8.49978 16.24 8.49978 15.86C8.49978 15.47 8.51978 15.09 8.56978 14.72C8.54978 14.72 8.51978 14.72 8.49978 14.72C5.87964 14.72 3.40951 14.2 1.51941 13.26C1.14939 13.07 0.809375 12.88 0.499359 12.66V13.57C0.499359 15.19 3.91954 17 8.49978 17ZM8.49978 12.43C8.72979 12.43 8.9498 12.43 9.16981 12.42C9.51983 11.55 10.0099 10.75 10.5999 10.03C9.91985 10.1 9.20982 10.14 8.49978 10.14C5.87964 10.14 3.40951 9.62 1.51941 8.68C1.14939 8.5 0.809375 8.3 0.499359 8.09V9C0.499359 10.62 3.91954 12.43 8.49978 12.43ZM11.93 12.07C11.4399 12.81 11.0799 13.66 10.9099 14.57C10.8299 14.99 10.7899 15.42 10.7899 15.86C10.7899 16.19 10.8099 16.52 10.8599 16.84C10.9699 17.62 11.2199 18.37 11.5699 19.04C11.94 19.75 12.44 20.39 13.02 20.92C14.2401 22.03 15.8602 22.71 17.6403 22.71C21.4205 22.71 24.5006 19.63 24.5006 15.85C24.5006 12.07 21.4205 9 17.6403 9C17.2502 9 16.8702 9.03 16.4902 9.1C14.5901 9.42 12.96 10.52 11.93 12.07Z" />
</g>
<defs>
<clipPath id="clip0">
<rect width="24.0013" height="24" fill="white" transform="translate(0.499359)"/>
</clipPath>
</defs>
</svg>
