<svg width="25" height="24" viewBox="0 0 25 24" fill="none" xmlns="http://www.w3.org/2000/svg">
<g clip-path="url(#clip0)">
<rect width="24.0013" height="24" transform="translate(0.499374)" fill="white"/>
<path d="M17.5508 11.7927C17.5508 11.6532 17.5658 11.5601 17.5658 11.4515C17.5658 9.91613 17.5658 8.39623 17.5658 6.86082C17.5658 5.86823 16.9958 5.29439 16.0507 5.29439C14.3557 5.29439 12.6757 5.29439 10.9806 5.29439C10.0206 5.29439 9.19557 4.68953 8.92556 3.79C8.50555 2.47172 9.43558 1.04487 10.7856 1.02936C13.2007 0.998347 15.6157 0.982837 18.0308 1.02936C20.0559 1.07589 21.6909 2.82843 21.7209 4.93768C21.7359 7.07795 21.7209 9.21822 21.7209 11.374C21.7209 11.4981 21.7209 11.6221 21.7209 11.8083C22.1859 11.7152 22.6209 11.6377 23.0559 11.5601C23.1909 11.5291 23.3409 11.4981 23.4759 11.4671C23.911 11.374 24.226 11.5136 24.406 11.8548C24.571 12.1805 24.526 12.5372 24.226 12.8474C23.7309 13.3747 23.2209 13.902 22.7259 14.4138C21.9459 15.2203 21.1659 16.0268 20.3709 16.8487C19.8458 17.3916 19.4708 17.3916 18.9458 16.8487C17.6858 15.546 16.4258 14.2277 15.1507 12.9249C14.9257 12.6923 14.7607 12.4596 14.8207 12.1184C14.8957 11.6377 15.3007 11.374 15.7957 11.4671C16.3658 11.5601 16.9358 11.6842 17.5508 11.7927ZM3.27042 11.6221C3.27042 13.7469 3.25542 15.8872 3.27042 18.0119C3.28542 20.1212 4.90546 21.9047 6.93051 21.9513C9.34558 22.0133 11.7756 21.9823 14.2057 21.9513C15.4807 21.9358 16.3958 20.664 16.1258 19.3767C15.9157 18.3842 15.0607 17.6862 14.0107 17.6707C12.3307 17.6707 10.6506 17.6707 8.97057 17.6707C7.98054 17.6707 7.42553 17.0969 7.42553 16.0733C7.42553 14.5534 7.42553 13.0335 7.42553 11.5136C7.42553 11.4205 7.44053 11.312 7.44053 11.1724C8.02554 11.2809 8.58056 11.3895 9.13557 11.5136C9.58558 11.6066 9.88559 11.4981 10.0806 11.1569C10.2756 10.8002 10.2306 10.459 9.90059 10.1178C8.58055 8.78396 7.27552 7.43466 5.97049 6.08536C5.55048 5.6511 5.14547 5.6511 4.72546 6.08536C3.40542 7.43466 2.10039 8.78396 0.795353 10.1488C0.465345 10.49 0.420344 10.8467 0.615349 11.1879C0.795353 11.5291 1.09536 11.6221 1.54537 11.5291C2.10039 11.4205 2.6554 11.312 3.27042 11.1879C3.27042 11.3895 3.27042 11.4981 3.27042 11.6221Z" />
</g>
<defs>
<clipPath id="clip0">
<rect width="24.0013" height="24" fill="white" transform="translate(0.499374)"/>
</clipPath>
</defs>
</svg>
