<svg width="25" height="24" viewBox="0 0 25 24" fill="none" xmlns="http://www.w3.org/2000/svg">
<path d="M22.9068 10.574L13.9293 1.59608C13.5442 1.21092 13.0398 1 12.4988 1C11.9578 1 11.4534 1.21092 11.0683 1.59608L2.10001 10.5648L2.09084 10.574C1.30222 11.3627 1.30222 12.6465 2.09084 13.4352C2.44847 13.7928 2.92531 14.0038 3.43883 14.0221C3.45717 14.0221 3.48468 14.0221 3.50302 14.0221H3.86065V20.6248C3.86065 21.9362 4.92437 23 6.23568 23H9.7478C10.1054 23 10.3897 22.7157 10.3897 22.3581V17.1767C10.3897 16.5807 10.8757 16.0946 11.4718 16.0946H13.5442C14.1402 16.0946 14.6262 16.5807 14.6262 17.1767V22.3581C14.6262 22.7157 14.9105 23 15.2681 23H18.7803C20.0916 23 21.1553 21.9362 21.1553 20.6248V14.0221H21.4854C22.0264 14.0221 22.5308 13.8112 22.9159 13.426C23.6954 12.6465 23.6954 11.3627 22.9068 10.574Z" />
</svg>
