<svg width="25" height="24" viewBox="0 0 25 24" fill="none" xmlns="http://www.w3.org/2000/svg">
<g clip-path="url(#clip0)">
<path d="M22.9805 14H1.99944C1.16939 14 0.499359 13.33 0.499359 12.5C0.499359 11.67 1.16939 11 1.99944 11H22.9805C23.8106 11 24.4806 11.67 24.4806 12.5C24.4806 13.33 23.8106 14 22.9805 14ZM24.4806 6.5C24.4806 5.67 23.8106 5 22.9805 5H10.5599C9.72984 5 9.05981 5.67 9.05981 6.5C9.05981 7.33 9.72984 8 10.5599 8H22.9905C23.8106 8 24.4806 7.33 24.4806 6.5ZM24.4806 18.5C24.4806 17.67 23.8106 17 22.9805 17H8.00975C7.17971 17 6.50967 17.67 6.50967 18.5C6.50967 19.33 7.17971 20 8.00975 20H22.9805C23.8106 20 24.4806 19.33 24.4806 18.5Z" />
</g>
<defs>
<clipPath id="clip0">
<rect width="24.0013" height="24" fill="white" transform="translate(0.499359)"/>
</clipPath>
</defs>
</svg>
