<svg width="25" height="24" viewBox="0 0 25 24" fill="none" xmlns="http://www.w3.org/2000/svg">
<path d="M19.1139 12.1779H17.567C17.7248 12.6104 17.8107 13.0774 17.8107 13.5635V19.4211C17.8107 19.6238 17.7756 19.8188 17.7115 19.9996H20.2687C21.2238 19.9996 22.0012 19.2211 22.0012 18.2637V15.0705C22.0012 13.4759 20.7058 12.1779 19.1139 12.1779ZM6.19019 13.5639C6.19019 13.0774 6.27652 12.6108 6.43395 12.1783H4.88699C3.2955 12.1779 2.00012 13.4759 2.00012 15.0709V18.2641C2.00012 19.2211 2.77712 20 3.73263 20H6.2898C6.22573 19.8188 6.19058 19.6242 6.19058 19.4215V13.5639H6.19019ZM13.7687 10.671H10.2326C8.6407 10.671 7.34532 11.9689 7.34532 13.5639V19.4215C7.34532 19.7409 7.60393 20 7.9227 20H16.0786C16.3974 20 16.656 19.7409 16.656 19.4215V13.5639C16.656 11.9685 15.361 10.671 13.7687 10.671ZM12.0006 3C10.0861 3 8.5282 4.56058 8.5282 6.4793C8.5282 7.78037 9.24503 8.91704 10.3037 9.51356C10.8057 9.79656 11.3846 9.95821 12.0006 9.95821C12.6167 9.95821 13.1956 9.79656 13.6976 9.51356C14.7563 8.91704 15.4731 7.78037 15.4731 6.4793C15.4731 4.56058 13.9152 3 12.0006 3ZM5.90345 6.24289C4.47174 6.24289 3.30683 7.41009 3.30683 8.84502C3.30683 10.28 4.47174 11.4472 5.90345 11.4472C6.26675 11.4472 6.61247 11.3716 6.92655 11.2362C7.46994 11.0017 7.91762 10.5872 8.19498 10.0674C8.38952 9.70262 8.50007 9.28654 8.50007 8.84502C8.50007 7.41009 7.33517 6.24289 5.90345 6.24289ZM18.0978 6.24289C16.6661 6.24289 15.5008 7.41009 15.5008 8.84502C15.5008 9.28654 15.6114 9.70262 15.8059 10.0674C16.0833 10.5872 16.531 11.0017 17.0743 11.2362C17.3884 11.3716 17.7345 11.4472 18.0978 11.4472C19.5296 11.4472 20.6949 10.28 20.6949 8.84502C20.6949 7.41009 19.5299 6.24289 18.0978 6.24289Z" />
</svg>
