<svg width="24" height="24" viewBox="0 0 24 24" fill="none" xmlns="http://www.w3.org/2000/svg">
<path d="M12 24C18.6274 24 24 18.6274 24 12C24 5.37258 18.6274 0 12 0C5.37258 0 0 5.37258 0 12C0 18.6274 5.37258 24 12 24Z" fill="#039BE5"/>
<path d="M5.49 11.74L17.06 7.28002C17.6 7.09002 18.07 7.41002 17.89 8.22002L15.92 17.5C15.77 18.16 15.38 18.32 14.84 18.01L11.84 15.8L10.39 17.19C10.23 17.35 10.09 17.49 9.79 17.49L10 14.43L15.56 9.41002C15.8 9.20002 15.51 9.08002 15.19 9.29002L8.32 13.62L5.36 12.7C4.71 12.49 4.7 12.05 5.49 11.74Z" fill="white"/>
</svg>
