<svg width="24" height="24" viewBox="0 0 24 24" fill="none" xmlns="http://www.w3.org/2000/svg">
<path d="M12 24C18.6274 24 24 18.6274 24 12C24 5.37258 18.6274 0 12 0C5.37258 0 0 5.37258 0 12C0 18.6274 5.37258 24 12 24Z" fill="#55ACEE"/>
<path d="M19.35 8.62002C18.84 8.85002 18.28 9.00002 17.7 9.07002C18.29 8.72002 18.75 8.15002 18.96 7.48002C18.41 7.81002 17.79 8.05002 17.14 8.18002C16.62 7.62002 15.87 7.27002 15.05 7.27002C13.47 7.27002 12.18 8.55002 12.18 10.14C12.18 10.36 12.21 10.58 12.25 10.79C9.87 10.67 7.75 9.53002 6.34 7.79002C6.1 8.23002 5.95 8.72002 5.95 9.25002C5.95 10.24 6.46 11.12 7.23 11.64C6.76 11.63 6.32 11.5 5.93 11.28C5.93 11.29 5.93 11.3 5.93 11.32C5.93 12.71 6.91999 13.87 8.22999 14.13C7.98999 14.2 7.74 14.23 7.47 14.23C7.27999 14.23 7.11 14.21 6.93 14.18C7.29 15.32 8.34999 16.15 9.60999 16.17C8.62999 16.94 7.39 17.4 6.05 17.4C5.82 17.4 5.59 17.39 5.37 17.36C6.64 18.17 8.15 18.65 9.77 18.65C15.05 18.65 17.93 14.28 17.93 10.49C17.93 10.37 17.93 10.24 17.92 10.12C18.48 9.70002 18.97 9.20002 19.35 8.62002Z" fill="white"/>
</svg>
